<?xml version="1.0" standalone="no"?>
<!DOCTYPE svg PUBLIC "-//W3C//DTD SVG 20010904//EN"
 "http://www.w3.org/TR/2001/REC-SVG-20010904/DTD/svg10.dtd">
<svg version="1.0" xmlns="http://www.w3.org/2000/svg"
 width="2048.000000pt" height="2048.000000pt" viewBox="0 0 2048.000000 2048.000000"
 preserveAspectRatio="xMidYMid meet">
<metadata>
Created by potrace 1.14, written by Peter Selinger 2001-2017
</metadata>
<g transform="translate(0.000000,2048.000000) scale(0.100000,-0.100000)"
fill="#000000" stroke="none">
<path d="M10638 16839 c-10 -5 -26 -29 -36 -52 -13 -28 -45 -66 -93 -108 -98
-85 -298 -279 -672 -649 -169 -168 -311 -306 -316 -308 -5 -2 -44 -43 -85 -93
-42 -49 -104 -109 -138 -134 -33 -24 -72 -61 -86 -82 -37 -57 -98 -118 -187
-188 -44 -35 -96 -83 -114 -106 -19 -24 -75 -82 -125 -129 -49 -47 -112 -110
-140 -140 -28 -30 -192 -194 -365 -365 -687 -678 -1537 -1533 -1587 -1596 -55
-69 -77 -89 -165 -153 -31 -22 -80 -73 -114 -119 -33 -45 -80 -97 -105 -115
-97 -73 -100 -76 -87 -119 8 -30 58 -86 228 -257 138 -140 221 -216 229 -211
6 4 28 33 47 64 19 31 85 106 147 166 61 61 145 147 186 190 41 44 111 114
155 156 44 41 103 100 130 130 28 29 87 88 131 129 44 41 100 96 124 122 58
62 348 345 535 523 185 176 247 239 415 415 74 79 164 170 200 204 35 33 164
162 286 286 123 124 235 238 251 253 15 15 205 203 421 417 215 214 392 394
392 399 0 6 28 33 63 62 34 28 112 99 172 158 153 148 269 251 286 251 17 1
42 20 55 42 8 14 24 3 109 -74 55 -50 155 -143 221 -208 67 -65 152 -140 191
-168 38 -28 89 -76 113 -106 24 -30 76 -79 114 -108 73 -55 153 -130 197 -184
14 -17 71 -68 127 -113 55 -44 105 -88 110 -96 17 -32 109 -120 177 -170 39
-29 103 -89 144 -135 41 -45 99 -100 130 -122 31 -23 108 -91 171 -153 63 -61
138 -129 165 -150 28 -22 58 -47 68 -55 10 -8 41 -42 69 -75 27 -33 64 -71 82
-85 18 -14 165 -154 327 -311 162 -157 362 -348 444 -425 83 -76 204 -191 270
-255 66 -63 152 -142 190 -174 39 -32 147 -131 240 -220 94 -89 214 -201 268
-250 54 -48 130 -124 169 -169 69 -79 149 -146 174 -146 6 0 19 11 28 25 21
32 27 31 48 -6 16 -27 22 -30 57 -27 45 4 107 47 193 133 67 66 79 82 100 128
19 39 13 74 -17 107 -11 12 -12 25 -5 55 13 54 0 81 -62 130 -28 22 -77 73
-110 113 -35 42 -101 104 -158 147 -54 41 -124 104 -157 140 -32 37 -110 114
-173 172 -121 111 -199 185 -445 423 -83 80 -207 196 -275 259 -69 63 -197
183 -285 267 -88 83 -183 170 -211 192 -28 22 -87 75 -131 119 -43 43 -162
155 -263 248 -100 94 -228 215 -284 270 -56 56 -131 124 -167 153 -36 28 -97
86 -135 129 -38 42 -101 100 -139 129 -39 28 -104 90 -144 137 -41 49 -107
112 -154 146 -46 34 -108 92 -138 129 -31 37 -91 95 -135 128 -43 33 -112 99
-151 146 -40 47 -104 109 -143 138 -38 28 -96 81 -129 116 -33 36 -99 99 -148
140 -48 41 -122 110 -163 152 -41 43 -108 106 -148 141 -41 35 -101 98 -134
140 -51 65 -89 100 -108 100 -3 0 -13 -4 -22 -10z"/>
<path d="M14217 15834 c-4 -4 -346 -6 -760 -5 l-754 2 -7 -166 c-5 -120 -3
-172 5 -188 24 -44 157 -182 254 -262 55 -46 125 -108 155 -139 58 -60 86 -70
95 -33 5 20 11 22 54 19 36 -3 63 3 102 21 30 13 70 30 89 37 19 7 43 20 52
28 9 8 47 17 83 19 l65 6 0 -291 0 -291 65 -74 c35 -41 88 -94 117 -118 29
-24 116 -105 193 -180 100 -97 156 -144 197 -163 98 -48 93 -61 92 249 -1 276
1 274 26 -30 14 -160 29 -207 31 -100 1 39 1 79 1 90 0 11 -1 298 -2 638 -1
374 -5 641 -11 675 -16 89 -69 252 -82 252 -7 0 -21 3 -32 6 -11 3 -24 2 -28
-2z"/>
<path d="M11603 14136 c-29 -6 -57 -16 -64 -23 -15 -15 -3 -33 23 -33 16 0 19
-5 14 -22 -3 -13 -6 -33 -6 -45 0 -19 -6 -23 -30 -23 -18 0 -30 -5 -30 -13 0
-8 -11 -19 -25 -25 -32 -15 -75 -16 -75 -2 0 12 -169 13 -189 1 -8 -5 -10 -14
-6 -21 6 -10 0 -12 -25 -7 -18 4 -38 7 -45 7 -7 0 -12 8 -11 17 2 26 -31 27
-120 3 -44 -12 -94 -24 -111 -27 -18 -3 -31 -9 -28 -13 6 -9 -44 -32 -56 -25
-5 3 -6 -1 -3 -9 5 -13 -2 -16 -35 -16 -23 0 -41 -4 -41 -9 0 -5 -8 -12 -17
-15 -10 -3 20 -2 67 1 73 5 196 5 492 -1 36 0 64 -4 62 -8 -2 -3 4 -8 13 -11
10 -2 -21 -2 -69 0 -110 6 -374 -13 -498 -37 -141 -27 -306 -96 -450 -188 -68
-43 -179 -149 -232 -220 -48 -64 -120 -204 -110 -214 4 -3 68 -29 142 -57 276
-102 437 -203 595 -372 159 -170 300 -419 344 -606 46 -195 54 -469 20 -636
-29 -146 -84 -307 -121 -358 -102 -141 -271 -310 -398 -396 -96 -65 -259 -128
-408 -158 -138 -28 -321 -17 -499 28 -78 21 -147 37 -152 37 -7 0 -11 -39 -11
-109 0 -134 -10 -165 -61 -191 -80 -41 -139 -110 -139 -163 0 -24 -28 -56 -65
-75 -11 -5 -60 -17 -110 -26 -229 -42 -414 -96 -455 -133 -12 -11 -15 -45 -15
-178 l0 -164 -29 -30 c-16 -17 -63 -51 -105 -77 -92 -56 -109 -77 -130 -162
l-16 -66 -75 -23 c-41 -13 -172 -48 -290 -77 -118 -30 -232 -61 -254 -70 -54
-23 -78 -21 -74 5 2 15 16 25 48 36 25 7 54 18 65 23 33 14 116 38 226 65 202
51 232 68 309 180 50 71 120 135 186 168 55 28 66 57 76 201 11 167 20 201 58
221 29 15 117 44 365 121 104 32 125 42 158 76 20 21 46 56 57 78 18 35 94
100 118 100 13 0 47 40 67 79 9 18 27 76 40 128 13 53 26 98 29 101 4 3 73
-11 154 -31 274 -68 372 -68 571 0 247 84 404 183 570 359 151 159 184 216
246 422 36 124 48 237 42 397 -11 275 -71 464 -214 674 -95 140 -129 180 -269
311 -105 99 -276 188 -499 261 -116 38 -124 39 -250 38 -71 -1 -121 -5 -110
-9 17 -6 13 -11 -30 -38 -28 -18 -62 -32 -76 -32 -14 0 -42 -11 -62 -24 -19
-13 -44 -27 -54 -30 -11 -3 -30 -16 -42 -27 -21 -19 -37 -26 -68 -28 -6 -1
-25 -12 -41 -26 -16 -13 -31 -22 -34 -20 -3 3 -13 -5 -24 -17 -10 -12 -13 -18
-6 -14 14 8 16 -3 4 -22 -5 -7 -17 -10 -28 -6 -14 4 -16 3 -5 -4 11 -8 10 -12
-8 -21 -11 -7 -21 -9 -21 -6 0 16 -58 -31 -83 -66 -15 -22 -31 -38 -35 -35
-15 9 -32 -10 -34 -37 -1 -15 -7 -26 -13 -24 -5 2 -19 -6 -30 -18 -11 -11 -29
-24 -39 -28 -10 -4 -20 -16 -23 -27 -3 -11 -11 -20 -18 -20 -15 0 -38 -26 -41
-47 -2 -8 -11 -25 -22 -37 -20 -22 -33 -49 -39 -81 -2 -11 -12 -26 -23 -34
-11 -7 -20 -20 -20 -27 0 -8 -8 -22 -17 -32 -18 -18 -63 -118 -63 -140 0 -6
-4 -12 -9 -12 -9 0 -43 -93 -39 -107 1 -4 -4 -19 -11 -32 -7 -13 -10 -36 -7
-52 3 -17 1 -29 -5 -29 -6 0 -8 -4 -5 -9 3 -5 0 -11 -8 -14 -19 -8 -25 -61
-10 -89 17 -30 17 -38 1 -38 -7 0 -14 -13 -15 -29 -3 -38 -20 -85 -21 -58 -1
10 -5 16 -10 13 -9 -6 -28 60 -56 189 l-14 70 3 -100 c4 -98 31 -235 62 -312
45 -113 82 -169 161 -248 91 -89 101 -116 63 -165 -11 -14 -20 -33 -20 -42 0
-9 -11 -29 -24 -43 -14 -15 -22 -33 -19 -41 3 -8 0 -14 -6 -14 -6 0 -11 10
-11 23 0 16 -10 6 -40 -40 -22 -34 -40 -71 -40 -83 0 -11 -7 -20 -15 -20 -8 0
-17 -11 -21 -25 -3 -14 -10 -22 -15 -19 -5 3 -9 -1 -9 -9 0 -8 -13 -29 -30
-47 -16 -18 -27 -37 -23 -44 3 -6 3 -8 -1 -4 -4 3 -16 -1 -25 -10 -10 -9 -37
-33 -61 -52 -138 -111 -184 -159 -267 -271 -154 -212 -203 -271 -317 -384 -61
-60 -149 -152 -196 -202 -47 -51 -88 -93 -92 -93 -5 0 -8 17 -8 38 0 35 8 47
78 118 42 44 132 131 198 194 67 63 129 129 137 146 14 28 17 158 23 1090 7
1190 0 1424 -44 1424 -8 0 -34 -21 -56 -46 -23 -26 -66 -70 -96 -98 -30 -28
-129 -126 -220 -217 -91 -91 -187 -184 -214 -205 l-49 -39 7 -305 c4 -168 11
-321 15 -340 4 -19 4 -188 -1 -375 -5 -187 -5 -643 -1 -1015 10 -844 10 -1359
1 -1653 l-8 -228 53 -25 c30 -13 98 -31 153 -39 93 -14 404 -30 574 -30 1442
4 3913 16 4020 20 80 3 242 7 360 11 118 3 271 12 340 19 134 15 169 12 237
-23 43 -22 98 -29 107 -13 3 4 -4 17 -15 27 -12 10 -28 32 -36 49 -9 16 -37
57 -62 90 -25 32 -53 69 -61 81 -26 39 -158 208 -179 231 -12 12 -21 26 -21
31 0 5 -15 26 -34 48 -18 21 -57 75 -87 119 -29 44 -57 85 -61 90 -4 6 -29 39
-55 75 -27 36 -58 79 -71 95 -42 56 -76 110 -74 117 1 5 -2 7 -7 5 -8 -2 -29
24 -160 199 -25 32 -48 61 -53 62 -4 2 -8 8 -8 14 0 5 -14 29 -31 54 -16 24
-27 49 -23 56 4 6 3 8 -3 5 -15 -9 -29 22 -32 67 -1 13 -7 17 -19 14 -23 -6
-43 22 -35 51 3 14 0 23 -11 27 -18 7 -22 34 -4 34 6 0 8 3 5 6 -4 4 -13 1
-22 -6 -12 -10 -15 -10 -15 4 0 9 6 16 13 16 8 0 7 3 -3 9 -8 6 -17 8 -21 5
-4 -2 -12 3 -19 11 -7 8 -20 15 -29 15 -14 0 -14 2 -1 10 13 8 13 11 -2 27
-17 16 -18 16 -18 -2 0 -16 -2 -17 -9 -5 -6 8 -8 17 -5 21 2 4 -9 12 -25 19
-37 15 -65 45 -58 63 2 7 60 43 128 80 69 36 149 87 179 113 119 102 266 194
288 180 5 -3 37 -47 72 -98 35 -51 127 -178 205 -283 287 -386 350 -472 397
-540 26 -38 81 -117 123 -175 41 -58 99 -141 128 -185 29 -44 91 -127 138
-185 46 -58 90 -117 98 -132 8 -15 44 -63 81 -107 37 -43 107 -136 156 -206
49 -70 136 -187 194 -259 58 -72 126 -158 150 -191 24 -33 67 -87 95 -120 29
-33 84 -107 123 -165 39 -58 91 -129 116 -158 48 -56 50 -60 38 -78 -14 -20
-148 -122 -261 -198 -62 -43 -141 -101 -175 -130 -34 -28 -104 -76 -156 -106
-101 -57 -184 -112 -320 -211 -47 -35 -128 -90 -181 -123 -53 -34 -126 -89
-163 -123 -98 -90 -193 -141 -211 -113 -12 19 -13 63 -2 87 15 32 133 111 272
181 66 33 158 88 204 123 107 81 195 141 296 203 44 27 110 75 147 106 37 31
107 76 155 100 48 25 111 59 139 76 61 38 144 136 144 170 0 30 -137 225 -218
310 -11 12 -68 93 -126 180 -128 192 -340 484 -444 614 -43 52 -104 131 -137
176 -33 45 -87 111 -119 148 -33 37 -83 104 -110 149 -53 85 -104 159 -180
262 -25 33 -75 105 -112 160 -37 55 -95 135 -128 178 -84 108 -106 137 -145
193 -19 27 -60 80 -90 118 -30 38 -83 113 -118 165 -34 53 -70 106 -80 118
l-18 23 -45 -30 c-122 -81 -265 -226 -253 -256 5 -13 2 -15 -16 -9 -14 4 -21
3 -19 -5 2 -7 -6 -14 -16 -16 -37 -6 -40 -39 -8 -76 20 -23 25 -68 7 -62 -16
7 -14 -21 3 -38 10 -10 17 -10 32 0 26 16 30 15 30 -3 0 -9 11 -20 24 -25 13
-5 31 -18 39 -30 11 -15 16 -18 20 -8 2 7 8 10 12 6 4 -4 2 -14 -5 -23 -10
-13 -9 -15 8 -15 11 0 30 -12 41 -26 11 -14 24 -23 28 -21 22 14 163 -169 148
-192 -6 -11 44 -33 57 -25 7 4 8 2 4 -5 -4 -6 -2 -18 4 -26 10 -12 9 -15 -4
-15 -28 0 -19 -39 12 -47 33 -9 39 -10 53 -12 6 0 9 -10 6 -21 -3 -11 -1 -20
3 -20 9 0 23 -34 24 -56 1 -7 21 -30 46 -53 42 -39 44 -43 26 -56 -10 -7 -16
-20 -13 -27 4 -10 6 -10 6 0 1 6 6 12 12 12 13 0 74 -50 62 -51 -4 0 2 -4 14
-9 14 -6 26 -23 33 -49 8 -29 15 -39 25 -35 10 4 15 -1 15 -16 0 -12 7 -29 16
-37 8 -9 13 -24 11 -34 -6 -24 9 -25 18 -1 5 14 9 11 21 -17 8 -19 12 -42 9
-53 -4 -10 -1 -18 5 -18 6 0 8 6 5 13 -4 6 3 1 15 -13 12 -14 19 -19 15 -12
-4 7 0 12 9 12 9 0 15 -3 14 -7 -3 -16 14 -63 22 -58 4 2 14 -3 23 -13 15 -16
17 -21 17 -41 0 -5 9 -13 20 -16 11 -3 20 -15 20 -26 0 -10 5 -19 10 -19 6 0
10 -6 10 -14 0 -8 16 -30 35 -48 22 -20 37 -45 39 -63 2 -17 4 -33 5 -36 0 -4
8 -10 17 -13 13 -5 15 -2 11 14 -3 11 -1 18 4 14 5 -3 9 -11 9 -17 0 -33 22
-87 36 -87 8 0 13 -4 10 -8 -3 -5 4 -26 15 -47 25 -46 30 -65 36 -127 4 -39 2
-48 -11 -48 -10 0 -13 -5 -9 -17 4 -11 3 -14 -5 -9 -13 8 -14 4 -16 -59 -3
-50 -15 -95 -27 -95 -5 0 -8 -3 -7 -7 2 -12 -14 -47 -26 -55 -7 -5 -4 -8 7 -8
10 0 15 -4 12 -10 -8 -14 2 -13 64 6 97 28 83 -4 -30 -71 -87 -51 -218 -140
-301 -204 -26 -20 -78 -58 -115 -86 -37 -27 -70 -52 -73 -55 -3 -3 -23 -18
-45 -34 -22 -17 -49 -38 -60 -48 -11 -10 -41 -36 -66 -58 -50 -44 -54 -64 -19
-105 10 -11 36 -52 60 -91 23 -39 55 -81 71 -93 l29 -21 61 31 c34 17 92 53
129 80 37 27 72 49 78 49 5 0 12 6 15 13 2 7 53 37 112 66 81 41 125 71 185
128 43 40 85 73 93 73 29 0 29 -21 2 -60 -31 -45 -95 -96 -215 -171 -47 -29
-114 -76 -150 -104 -87 -69 -336 -218 -350 -210 -5 3 -10 13 -10 22 0 28 -23
86 -50 128 -50 76 -81 120 -89 125 -5 3 -16 20 -26 39 -15 30 -18 32 -32 18
-13 -13 -13 -21 -3 -53 17 -54 78 -157 138 -231 30 -37 54 -81 62 -110 15 -56
40 -87 83 -103 49 -18 91 -42 100 -57 4 -7 13 -13 20 -13 39 0 163 -197 158
-250 -7 -83 112 -222 243 -284 43 -20 103 -42 133 -47 68 -13 177 -3 210 18
12 8 23 12 23 9 0 -4 14 0 30 8 17 9 43 23 59 31 16 8 39 15 50 15 12 0 21 5
21 10 0 6 11 10 24 10 13 0 29 7 36 15 7 9 21 13 31 10 9 -3 20 -1 24 5 9 15
73 40 101 40 16 0 28 8 36 25 6 14 19 25 28 25 10 0 23 7 30 15 9 11 16 13 24
5 18 -18 41 -11 71 20 16 17 32 30 37 30 5 0 25 10 46 23 20 13 56 29 80 37
24 7 49 21 55 30 14 19 89 66 100 62 4 -1 41 32 82 73 42 41 78 75 81 75 9 0
104 97 104 107 0 5 13 22 28 39 15 16 35 49 42 74 20 60 20 236 0 270 -8 14
-15 27 -15 30 -4 20 -50 112 -61 121 -8 6 -14 20 -14 30 0 11 -4 19 -8 19 -5
0 -14 11 -20 25 -7 14 -16 31 -22 38 -5 7 -22 28 -37 47 -16 19 -42 55 -58 79
-16 24 -38 49 -47 55 -10 6 -18 14 -18 18 0 4 -28 45 -61 90 -34 46 -64 90
-67 98 -3 8 -30 50 -59 93 -29 43 -56 90 -59 105 -4 15 -10 29 -13 32 -23 19
-27 46 -12 70 8 14 18 27 21 30 13 13 15 51 10 275 -5 235 -5 522 0 2405 2
842 1 940 -14 981 -9 26 -22 83 -30 128 -21 121 -51 177 -132 247 -37 32 -145
133 -239 224 -292 284 -356 336 -342 278 9 -37 21 -3467 12 -3650 -7 -158 -16
-200 -28 -126 -3 18 -7 42 -9 53 -4 27 -40 57 -50 42 -5 -7 -7 -1 -6 14 1 16
-12 44 -35 76 -20 28 -37 55 -37 61 0 6 -6 15 -13 19 -12 8 -67 88 -67 98 0 6
-81 121 -102 145 -7 8 -17 22 -23 31 -20 33 -78 114 -89 124 -6 6 -27 35 -46
65 -19 30 -40 59 -47 63 -7 4 -13 16 -13 26 0 11 -7 21 -15 25 -8 3 -15 15
-15 26 0 11 -4 20 -8 20 -5 0 -15 12 -23 27 -8 15 -22 35 -31 45 -10 10 -18
25 -18 33 0 8 -4 15 -10 15 -5 0 -17 16 -26 35 -9 19 -20 35 -25 35 -5 0 -9 7
-9 15 0 8 -4 15 -9 15 -5 0 -13 10 -16 23 -4 12 -18 36 -31 54 -13 17 -24 36
-24 42 0 6 -9 15 -20 21 -11 6 -20 17 -20 25 0 8 -4 15 -9 15 -5 0 -14 15 -22
33 -7 17 -17 35 -21 38 -5 3 -9 22 -10 42 -1 20 -5 34 -10 31 -4 -3 -8 6 -8
20 0 14 3 26 8 26 4 0 8 13 9 29 1 16 11 46 22 67 11 20 18 41 16 45 -3 4 2 9
10 13 8 3 15 12 15 19 0 8 16 31 35 51 19 21 35 41 35 46 0 5 14 24 30 42 17
18 30 40 30 50 0 10 4 18 9 18 6 0 18 13 27 29 10 17 21 28 26 25 4 -3 8 0 8
7 0 6 20 42 45 79 25 37 45 75 45 85 0 9 12 29 28 45 15 15 28 34 30 41 2 8
21 51 43 96 22 45 47 106 55 135 9 29 20 55 24 58 5 3 11 17 13 31 3 14 12 53
21 85 48 183 71 444 62 704 -8 225 -12 279 -30 344 -8 28 -24 87 -36 130 -11
44 -30 97 -41 120 -10 22 -19 44 -19 50 0 5 -9 28 -19 50 -10 23 -36 79 -56
125 -21 47 -53 110 -71 140 -19 31 -34 61 -34 68 0 7 -6 16 -13 20 -7 4 -32
38 -56 75 -24 36 -52 69 -62 71 -11 3 -19 14 -19 26 0 12 -6 21 -15 21 -8 0
-15 4 -15 9 0 5 -15 24 -32 43 -18 19 -56 68 -85 109 -60 85 -290 332 -306
326 -20 -6 -19 -27 2 -27 11 0 26 -10 32 -22 7 -13 24 -34 38 -48 45 -44 139
-159 183 -223 37 -55 107 -186 129 -244 14 -36 -7 -27 -32 15 -13 20 -27 42
-31 47 -5 6 -30 44 -55 85 -26 41 -63 96 -82 122 -20 25 -47 61 -61 79 -79
105 -234 259 -297 296 -24 14 -43 29 -43 35 0 6 -6 8 -14 5 -7 -3 -26 3 -42
14 -16 10 -39 19 -51 19 -12 0 -23 3 -25 8 -6 15 -134 62 -170 62 -20 0 -39 6
-41 13 -4 8 -6 9 -6 0 -1 -14 -54 -7 -59 8 -3 6 -9 6 -17 -1 -9 -8 -14 -6 -19
5 -6 17 -46 21 -46 4 0 -8 -4 -8 -12 -2 -8 6 -32 6 -65 -1z m-507 -214 c-10
-2 -22 0 -28 6 -6 6 0 7 19 4 21 -5 23 -7 9 -10z m-179 -18 c-3 -3 -12 -4 -19
-1 -8 3 -5 6 6 6 11 1 17 -2 13 -5z m93 -4 c-36 -11 -52 -11 -45 0 3 6 21 10
38 9 31 -1 31 -1 7 -9z m-137 -37 c-7 -2 -19 -2 -25 0 -7 3 -2 5 12 5 14 0 19
-2 13 -5z m1052 -323 c3 -5 -1 -10 -9 -10 -9 0 -16 5 -16 10 0 6 4 10 9 10 6
0 13 -4 16 -10z m-41 -26 c3 -8 2 -12 -4 -9 -6 3 -10 10 -10 16 0 14 7 11 14
-7z m66 -25 c0 -26 -25 -30 -26 -4 -1 12 4 22 12 22 8 0 14 -8 14 -18z m50
-69 c0 -6 -11 -8 -27 -4 -40 10 -41 14 -5 14 18 0 32 -5 32 -10z m35 -30 c-3
-21 0 -28 9 -24 8 3 26 -6 41 -20 15 -14 24 -26 18 -26 -5 0 -14 5 -21 12 -8
8 -12 8 -12 1 0 -15 31 -26 43 -14 9 9 47 4 47 -7 0 -2 -8 -11 -17 -19 -10 -8
-12 -11 -4 -7 10 5 13 3 8 -8 -3 -9 -3 -19 1 -23 4 -4 7 -10 7 -14 0 -4 8 -15
18 -25 9 -10 17 -13 17 -7 0 6 7 11 15 11 9 0 14 -8 12 -22 -2 -20 2 -23 32
-20 27 3 33 1 28 -11 -3 -9 1 -18 10 -21 11 -5 14 -16 10 -46 -2 -22 0 -37 5
-34 4 3 5 10 2 16 -4 7 -2 8 5 4 6 -4 9 -12 6 -17 -4 -5 1 -12 9 -15 9 -3 13
-10 10 -15 -3 -5 0 -9 5 -9 6 0 11 -9 11 -19 0 -11 5 -23 10 -26 6 -3 10 -13
10 -22 0 -9 6 -24 14 -32 8 -9 16 -29 19 -46 6 -38 29 -95 39 -95 4 0 5 -6 2
-14 -3 -8 -1 -38 5 -68 6 -29 18 -86 26 -127 8 -41 12 -85 9 -98 -4 -13 -2
-23 5 -23 7 0 9 -17 5 -47 -3 -27 -5 -73 -5 -103 0 -30 -3 -62 -6 -70 -8 -20
-12 -45 -18 -109 -3 -30 -11 -63 -17 -75 -14 -24 -17 -33 -25 -78 -3 -18 -14
-46 -25 -61 -11 -15 -21 -34 -22 -42 -1 -8 -14 -33 -29 -56 -15 -22 -27 -46
-27 -53 0 -7 -8 -21 -18 -32 -10 -10 -29 -35 -42 -54 -14 -19 -53 -64 -87 -99
-35 -35 -63 -68 -63 -72 0 -5 -5 -9 -11 -9 -6 0 -21 -9 -33 -19 -11 -11 -38
-36 -60 -55 -21 -19 -47 -38 -59 -42 -11 -3 -25 -10 -31 -15 -30 -25 -89 -59
-101 -59 -8 0 -25 -10 -37 -22 -13 -13 -25 -23 -28 -24 -3 0 -26 -10 -52 -23
-25 -12 -52 -21 -60 -20 -16 4 -88 -22 -88 -32 0 -4 -10 -9 -22 -12 -13 -3
-50 -15 -83 -27 -89 -32 -161 -28 -224 12 -28 17 -51 37 -51 44 0 7 19 18 43
24 153 40 213 65 199 83 -5 6 -11 72 -11 146 -2 122 -8 172 -31 271 -5 19 -16
66 -25 104 -8 37 -18 72 -21 77 -3 5 -7 17 -9 27 -2 10 -10 35 -19 55 -8 21
-15 40 -15 44 1 3 -3 9 -8 12 -6 3 -22 33 -38 66 -15 33 -45 86 -66 117 -22
32 -39 62 -39 68 0 5 -9 14 -20 20 -11 6 -20 16 -20 23 0 7 -16 35 -35 62 -19
28 -41 58 -48 69 -6 10 -33 44 -59 75 -26 31 -48 59 -48 63 0 25 -321 344
-334 331 -6 -6 -68 56 -70 70 -1 7 -5 18 -9 25 -5 7 -3 12 4 12 13 0 59 46 59
60 0 11 14 20 41 25 12 3 29 11 39 20 9 8 24 15 32 15 9 0 19 7 22 16 4 9 13
14 21 10 8 -3 15 -1 15 3 0 5 8 7 18 4 10 -2 29 6 44 19 28 25 34 27 93 34 22
3 50 12 62 20 12 8 33 14 47 14 14 0 27 4 30 9 7 10 76 21 146 23 25 0 54 5
64 11 11 5 101 11 200 12 154 1 198 -2 295 -21 157 -32 167 -39 371 -269 53
-60 109 -130 124 -153 15 -24 30 -42 32 -39 16 16 -118 325 -166 382 -28 33
-110 153 -110 161 0 3 7 1 15 -6 12 -10 15 -10 15 1 0 11 3 11 11 -1 9 -12 10
-11 6 7 -3 15 -1 20 8 16 8 -3 12 -16 10 -33z m161 -142 c-2 -14 -9 -18 -28
-18 -8 0 -5 7 6 15 24 18 25 18 22 3z m-2686 -292 c0 -3 -4 -8 -10 -11 -5 -3
-10 -1 -10 4 0 6 5 11 10 11 6 0 10 -2 10 -4z m210 -230 c-154 -26 -218 -51
-337 -132 -197 -132 -255 -207 -318 -407 -21 -64 -41 -120 -46 -123 -16 -10
-9 -144 12 -227 70 -279 137 -386 393 -626 53 -49 56 -55 47 -81 -5 -16 -36
-57 -69 -92 -32 -34 -81 -88 -107 -118 -27 -30 -51 -57 -54 -60 -4 -3 -26 -30
-51 -60 -24 -30 -68 -80 -96 -110 -28 -30 -95 -102 -149 -160 -55 -58 -230
-235 -390 -395 -160 -159 -325 -328 -366 -373 -40 -46 -90 -100 -109 -121 -19
-20 -84 -90 -145 -155 -60 -65 -136 -146 -167 -180 -32 -33 -60 -69 -64 -80
-10 -29 -24 2 -17 39 4 22 47 73 157 185 84 85 201 209 261 275 101 111 164
177 486 510 563 583 867 923 836 934 -9 4 -72 58 -140 122 -163 154 -243 273
-303 449 -16 46 -19 86 -19 250 l0 196 52 107 c60 122 85 159 163 237 52 53
142 120 159 120 5 0 14 7 21 15 7 8 23 15 37 15 14 0 21 4 18 10 -3 6 5 10 19
10 14 0 28 5 31 11 4 6 13 8 21 5 7 -3 16 -1 19 3 2 5 35 9 71 10 37 0 68 2
70 4 2 1 36 3 76 4 l73 1 -75 -12z m3237 -398 c-7 -184 -38 -345 -95 -498 -83
-222 -150 -345 -277 -507 -127 -163 -163 -201 -240 -258 -38 -29 -108 -87
-155 -129 -47 -42 -88 -76 -92 -76 -20 0 -2 -39 68 -142 42 -62 103 -143 136
-180 33 -37 57 -72 54 -77 -12 -19 -130 -102 -244 -172 -64 -40 -160 -104
-212 -144 -107 -81 -236 -168 -262 -178 -54 -20 31 -135 140 -191 38 -20 100
-79 162 -156 25 -30 57 -68 72 -85 38 -42 131 -156 148 -181 29 -41 98 -129
124 -157 14 -15 26 -30 26 -33 0 -3 10 -15 23 -28 12 -13 31 -34 42 -47 11
-13 41 -50 67 -81 27 -31 48 -61 48 -67 0 -5 18 -25 40 -44 33 -28 37 -35 23
-38 -39 -8 -3830 10 -3863 19 l-35 9 43 13 c24 8 55 28 71 45 15 18 37 38 47
44 18 12 18 12 -1 7 -14 -4 -10 2 13 21 18 16 32 33 32 38 0 6 9 16 19 22 10
6 51 54 89 105 39 51 77 101 86 110 8 9 12 19 9 22 -3 3 2 8 11 12 9 3 14 10
11 14 -3 4 4 19 15 33 11 14 20 29 20 34 0 12 46 64 52 58 2 -3 10 5 17 18 20
37 111 92 196 117 44 13 84 27 90 32 5 4 16 8 26 8 19 0 141 62 177 90 13 11
30 20 37 20 6 0 18 11 25 25 7 14 17 25 22 25 4 0 8 5 8 11 0 7 16 26 35 43
19 17 36 38 37 46 2 8 12 22 23 32 11 9 16 17 11 18 -5 0 3 10 18 21 15 12 25
23 22 26 -9 10 75 82 104 88 3 1 19 7 35 14 17 7 73 14 125 16 52 2 121 7 153
10 33 4 84 9 115 10 97 5 170 12 179 17 4 3 32 6 62 7 30 1 63 7 74 12 37 20
594 28 647 9 14 -4 37 -11 52 -14 30 -7 63 -38 118 -110 30 -39 36 -43 38 -26
2 11 22 33 45 48 23 14 78 54 122 88 76 58 167 118 265 177 25 15 70 43 100
62 30 19 79 47 108 62 28 15 52 30 52 34 0 4 -22 24 -49 45 -28 20 -81 80
-120 133 -38 53 -83 109 -100 125 -37 36 -40 68 -7 93 13 10 103 85 200 166
151 127 191 168 281 282 170 216 260 384 325 610 17 61 40 139 50 175 28 95
50 233 50 308 0 49 3 63 11 55 8 -8 10 -57 6 -165z m-5267 33 c0 -13 -34 -47
-92 -94 -49 -40 -65 -39 -25 1 101 101 117 114 117 93z m2649 -95 c91 -46 182
-138 222 -225 19 -39 37 -71 41 -71 4 0 12 9 18 20 6 11 15 20 20 20 12 0 33
-67 25 -81 -4 -6 5 -23 20 -39 23 -25 25 -32 17 -62 -9 -34 3 -68 24 -68 17 0
10 -202 -9 -244 -9 -21 -15 -42 -12 -46 3 -4 -2 -11 -11 -14 -8 -3 -13 -9 -10
-14 2 -4 -6 -26 -19 -47 -14 -22 -32 -55 -40 -73 -9 -18 -20 -30 -25 -27 -6 3
-10 0 -10 -8 0 -17 -89 -109 -100 -102 -4 3 -10 -5 -13 -17 -4 -12 -9 -19 -13
-16 -3 4 -23 -4 -43 -17 -19 -14 -41 -25 -47 -25 -6 0 -17 -6 -24 -14 -6 -8
-19 -12 -27 -9 -11 4 -14 2 -9 -6 11 -18 -54 -41 -137 -48 -40 -4 -139 -7
-222 -7 -143 -1 -154 1 -240 31 -100 34 -204 91 -205 111 0 7 -11 30 -25 52
-14 22 -25 44 -25 50 0 6 -41 52 -91 103 -50 51 -96 101 -102 112 -18 32 -13
210 8 287 10 40 22 65 28 61 6 -3 7 -1 4 4 -4 6 0 23 8 39 7 15 12 31 9 35 -3
5 4 14 16 21 11 7 20 18 20 25 0 18 58 81 81 88 10 4 19 12 19 19 0 16 68 76
86 76 7 0 37 11 66 23 29 13 69 30 88 36 19 7 44 17 55 21 11 5 31 11 45 13
14 3 61 14 105 26 101 26 198 39 296 39 65 -1 85 -5 138 -32z m-1636 -1341
c-3 -9 -8 -14 -10 -11 -3 3 -2 9 2 15 9 16 15 13 8 -4z m2182 -316 c33 -5 147
-9 253 -9 108 0 192 -4 192 -9 0 -5 10 -7 23 -3 20 5 21 4 8 -11 -7 -9 -9 -17
-4 -17 6 0 19 -8 31 -17 63 -54 60 -52 66 -37 3 9 1 12 -4 9 -6 -3 -10 -1 -10
4 0 14 11 14 30 0 11 -8 12 -12 3 -16 -21 -8 -15 -50 7 -56 13 -3 18 -10 14
-21 -4 -11 -1 -16 10 -16 19 0 20 5 6 31 -14 24 -2 24 29 -2 23 -19 23 -20 6
-39 -9 -10 -14 -24 -10 -31 6 -8 10 -7 17 5 5 9 19 16 31 16 17 0 27 -12 45
-56 21 -52 22 -81 1 -69 -10 7 -8 -23 4 -42 4 -6 3 -14 -2 -17 -5 -3 -11 3
-14 14 -8 32 -30 25 -23 -7 l7 -28 -16 23 c-9 12 -17 31 -18 41 0 11 -6 17
-14 14 -7 -3 -13 0 -13 6 0 6 -6 8 -12 6 -13 -5 -98 110 -98 132 0 7 -8 17
-17 22 -10 6 -13 11 -8 11 7 0 7 3 0 8 -5 4 -21 27 -34 52 -39 71 -38 71 -196
64 -149 -6 -276 5 -360 32 -66 21 -84 39 -30 29 22 -4 67 -11 100 -16z m771
-367 c-17 -16 -18 -16 -5 5 7 12 15 20 18 17 3 -2 -3 -12 -13 -22z m-106 4 c0
-3 -4 -8 -10 -11 -5 -3 -10 -1 -10 4 0 6 5 11 10 11 6 0 10 -2 10 -4z m464
-491 c-4 -8 -11 -12 -16 -9 -6 4 -5 10 3 15 19 12 19 11 13 -6z m351 -155 c3
-6 -1 -7 -9 -4 -18 7 -21 14 -7 14 6 0 13 -4 16 -10z m276 -418 c-7 -2 -18 1
-23 6 -8 8 -4 9 13 5 13 -4 18 -8 10 -11z m957 -1796 c-28 -53 -71 -93 -175
-161 -125 -83 -141 -102 -123 -145 7 -16 10 -35 7 -42 -2 -7 0 -21 5 -30 16
-33 -9 -63 -129 -152 -84 -62 -137 -117 -168 -174 -24 -44 -31 -50 -46 -41
-21 11 -69 71 -69 85 0 6 22 23 49 39 27 17 90 57 140 90 50 33 112 74 138 90
26 17 49 38 51 48 2 11 -10 42 -28 70 -25 41 -30 55 -22 72 15 33 107 106 196
156 49 27 93 62 118 92 32 37 43 45 54 36 11 -9 11 -16 2 -33z"/>
<path d="M11396 10507 c3 -10 9 -15 12 -12 3 3 0 11 -7 18 -10 9 -11 8 -5 -6z"/>
<path d="M11520 10331 c0 -6 4 -13 10 -16 6 -3 7 1 4 9 -7 18 -14 21 -14 7z"/>
<path d="M11570 10310 c0 -13 5 -20 13 -17 6 2 12 10 12 17 0 7 -6 15 -12 18
-8 2 -13 -5 -13 -18z"/>
<path d="M12340 13916 c0 -8 7 -16 15 -20 17 -6 18 -4 9 18 -8 20 -24 21 -24
2z"/>
<path d="M10605 13850 c-3 -5 -2 -10 4 -10 5 0 13 5 16 10 3 6 2 10 -4 10 -5
0 -13 -4 -16 -10z"/>
<path d="M10667 13833 c-12 -12 -7 -22 8 -17 8 4 15 10 15 15 0 11 -14 12 -23
2z"/>
<path d="M10530 13780 c-8 -5 -10 -10 -5 -10 6 0 17 5 25 10 8 5 11 10 5 10
-5 0 -17 -5 -25 -10z"/>
<path d="M10398 13739 c-14 -6 -29 -16 -32 -24 -6 -17 19 -9 53 17 26 20 20
22 -21 7z"/>
<path d="M10327 13701 c-3 -14 -1 -18 9 -14 8 3 14 11 14 19 0 21 -17 17 -23
-5z"/>
<path d="M10254 13666 c-10 -8 -16 -18 -11 -22 8 -8 57 15 57 28 0 13 -24 9
-46 -6z"/>
<path d="M10060 13550 c0 -5 5 -10 10 -10 6 0 10 5 10 10 0 6 -4 10 -10 10 -5
0 -10 -4 -10 -10z"/>
<path d="M10040 13496 c0 -22 3 -27 11 -19 8 8 8 16 0 30 -9 16 -10 14 -11
-11z"/>
<path d="M9950 13460 c0 -5 5 -12 10 -15 6 -4 2 -16 -10 -32 -22 -28 -20 -39
5 -29 9 3 13 10 10 16 -3 5 -1 10 5 10 7 0 14 -9 17 -19 4 -17 8 -18 24 -8 14
9 16 14 6 26 -9 11 -9 15 1 18 23 8 12 21 -28 31 -22 5 -40 6 -40 2z"/>
<path d="M8608 11715 c-3 -14 -1 -25 3 -25 5 0 9 11 9 25 0 14 -2 25 -4 25 -2
0 -6 -11 -8 -25z"/>
<path d="M11962 9877 c-7 -8 -7 -17 2 -30 17 -22 25 -22 23 2 0 11 -5 17 -11
14 -5 -4 -7 1 -3 10 8 20 3 22 -11 4z"/>
<path d="M12002 9828 c-5 -15 -7 -28 -2 -28 4 0 10 9 13 21 3 12 10 18 16 14
6 -3 11 0 11 8 0 25 -27 14 -38 -15z"/>
<path d="M12100 9750 c0 -5 5 -10 10 -10 6 0 10 5 10 10 0 6 -4 10 -10 10 -5
0 -10 -4 -10 -10z"/>
<path d="M12075 9730 c-3 -5 -1 -10 4 -10 6 0 11 5 11 10 0 6 -2 10 -4 10 -3
0 -8 -4 -11 -10z"/>
<path d="M12130 9665 c0 -8 5 -15 10 -15 6 0 10 7 10 15 0 8 -4 15 -10 15 -5
0 -10 -7 -10 -15z"/>
<path d="M12360 9531 c0 -5 7 -14 15 -21 12 -10 15 -10 15 3 0 8 -7 17 -15 21
-8 3 -15 2 -15 -3z"/>
<path d="M13130 8478 c0 -9 5 -20 11 -23 17 -11 20 0 4 21 -13 17 -14 17 -15
2z"/>
<path d="M9723 6862 c-44 -4 -53 -20 -60 -102 l-6 -71 29 7 c16 4 38 14 49 24
24 21 60 40 74 40 15 0 14 -270 -1 -345 -10 -53 -10 -59 8 -72 14 -10 33 -13
69 -8 53 6 80 28 68 55 -3 8 -8 95 -10 193 -4 189 0 203 43 156 10 -12 32 -28
48 -36 27 -14 31 -14 43 3 10 14 13 34 8 74 -7 58 -23 80 -59 80 -12 0 -77 1
-146 3 -69 1 -139 1 -157 -1z"/>
<path d="M10196 6863 l-39 -4 9 -47 c11 -57 11 -399 1 -427 -13 -36 7 -49 75
-50 35 0 63 3 63 6 0 3 6 13 14 22 10 13 11 20 2 30 -6 8 -12 45 -13 83 l-3
69 73 3 72 3 0 -50 c0 -28 -5 -71 -12 -96 -16 -59 -6 -68 78 -69 l66 -1 2 258
c1 295 10 271 -95 265 -51 -3 -54 -4 -52 -28 2 -14 6 -62 9 -108 l7 -83 -69 3
-69 3 -9 37 c-7 28 -5 53 7 95 12 45 13 61 4 69 -15 14 -70 22 -121 17z"/>
<path d="M10684 6847 c-3 -8 0 -34 5 -58 15 -64 14 -372 -1 -405 -21 -46 4
-54 165 -52 77 0 150 3 164 6 36 7 59 61 47 109 -12 50 -41 55 -92 15 -44 -35
-105 -50 -127 -32 -16 14 -20 77 -6 99 7 11 15 11 41 2 24 -8 37 -8 46 0 19
16 27 69 16 110 -8 33 -10 34 -55 33 -40 0 -47 3 -52 23 -3 13 -3 34 1 48 9
37 62 35 107 -5 38 -33 81 -39 91 -14 16 42 -6 115 -39 128 -9 3 -82 6 -161 6
-111 0 -146 -3 -150 -13z"/>
<path d="M3745 5940 l-110 -5 -3 -32 c-2 -18 6 -62 18 -97 21 -62 22 -75 18
-437 -4 -317 -7 -381 -21 -418 -22 -57 -22 -97 1 -106 27 -10 298 -14 392 -5
198 20 265 46 358 142 59 60 76 109 70 207 -4 63 -10 88 -33 127 -31 53 -75
97 -117 120 -35 18 -35 25 3 66 56 61 72 104 65 176 -12 115 -53 164 -181 216
-108 44 -233 56 -460 46z m360 -158 c101 -69 97 -194 -8 -249 -42 -21 -208
-37 -219 -21 -11 16 -5 279 6 296 6 10 29 12 94 7 72 -5 94 -11 127 -33z m40
-436 c70 -32 107 -81 113 -151 2 -30 2 -65 -2 -79 -9 -36 -62 -94 -106 -116
-48 -24 -150 -42 -220 -38 l-55 3 -3 185 c-1 102 0 195 3 208 6 23 7 23 112
18 82 -5 118 -11 158 -30z"/>
<path d="M4885 5940 c-71 -3 -136 -9 -142 -13 -19 -12 -16 -60 9 -119 22 -52
22 -60 19 -428 -2 -304 -5 -382 -18 -415 -23 -61 -27 -94 -13 -110 11 -13 62
-15 340 -15 198 0 339 4 357 10 43 15 61 54 69 153 7 96 0 117 -43 117 -24 0
-35 -9 -126 -108 -45 -50 -63 -54 -227 -50 l-125 3 -3 165 c-1 91 0 175 3 188
8 32 45 28 133 -15 103 -51 107 -48 107 99 0 161 -13 174 -112 111 -36 -23
-70 -36 -92 -37 l-36 -1 -3 162 -2 162 39 11 c50 13 195 7 218 -10 10 -7 48
-44 84 -82 58 -60 69 -67 90 -60 40 15 44 33 31 125 -16 111 -29 146 -55 152
-33 8 -353 11 -502 5z"/>
<path d="M12358 5942 c-20 -2 -39 -10 -42 -17 -3 -8 5 -43 17 -77 21 -61 22
-75 21 -453 -1 -375 -2 -392 -22 -443 -29 -70 -29 -100 1 -107 30 -6 118 -10
195 -7 57 2 63 4 72 28 8 20 5 34 -15 70 -24 43 -25 52 -25 220 l0 174 198 -2
197 -3 3 -150 c3 -142 2 -154 -24 -232 -16 -45 -25 -85 -21 -89 11 -11 161
-20 232 -14 56 5 60 7 63 31 2 15 -7 44 -20 65 -23 39 -23 43 -26 439 l-3 400
25 48 c53 99 32 117 -131 119 -66 1 -125 -2 -132 -6 -16 -10 -7 -66 17 -111
12 -23 17 -69 20 -202 l4 -173 -201 0 -201 0 0 163 c0 143 2 168 20 202 31 60
36 101 13 110 -22 9 -185 21 -235 17z"/>
<path d="M14635 5942 c-51 -9 -56 -33 -23 -105 23 -52 23 -55 23 -447 0 -389
0 -396 -22 -443 -13 -27 -23 -59 -23 -72 0 -20 7 -25 55 -35 66 -14 138 -5
161 21 16 18 15 21 -12 61 l-29 41 -3 321 -3 320 21 -19 c11 -10 48 -59 82
-109 34 -50 78 -116 99 -146 21 -30 85 -123 141 -206 157 -230 180 -261 209
-278 15 -9 34 -13 43 -10 39 15 41 36 46 504 5 450 5 455 28 491 47 77 18 109
-102 110 -41 0 -80 -2 -86 -6 -17 -11 -11 -62 13 -107 21 -41 22 -57 25 -292
2 -161 0 -252 -7 -259 -7 -7 -17 2 -32 28 -32 53 -123 193 -154 235 -34 46
-115 162 -194 278 -36 52 -74 100 -85 108 -26 16 -116 25 -171 16z"/>
<path d="M15765 5941 c-43 -5 -50 -9 -53 -29 -2 -13 7 -47 20 -75 23 -51 23
-58 26 -438 l3 -385 -30 -75 c-19 -47 -26 -78 -20 -84 10 -10 303 -27 364 -21
22 3 115 5 207 5 196 1 180 -9 203 132 12 74 12 97 2 118 -22 46 -51 39 -120
-32 -87 -88 -118 -98 -277 -95 l-125 3 -3 180 c-2 154 0 182 13 191 23 17 80
1 130 -35 45 -32 83 -39 103 -19 8 8 12 50 12 124 0 132 -7 147 -66 134 -20
-5 -40 -13 -43 -18 -12 -19 -93 -53 -119 -50 l-27 3 0 162 c0 89 2 164 5 167
6 5 100 9 188 7 53 -1 54 -2 133 -81 44 -44 86 -80 94 -80 8 0 25 10 36 21 19
19 21 28 14 78 -3 31 -8 72 -9 91 -3 44 -20 76 -49 92 -24 14 -517 21 -612 9z"/>
<path d="M6116 5911 c-16 -31 -96 -243 -155 -411 -21 -58 -53 -143 -73 -190
-20 -47 -46 -116 -58 -155 -12 -38 -25 -74 -30 -80 -24 -29 -101 -188 -98
-202 2 -10 14 -20 28 -24 34 -10 152 -10 166 -1 7 4 11 43 10 102 0 81 4 104
26 155 l26 60 158 3 c132 2 160 0 174 -13 10 -9 30 -51 45 -93 25 -71 27 -82
16 -137 -7 -41 -7 -63 0 -70 6 -6 68 -10 152 -10 141 0 142 0 145 23 2 13 -4
35 -14 50 -47 71 -125 242 -173 377 -59 166 -74 205 -96 255 -13 30 -43 109
-66 175 -59 167 -91 215 -140 215 -21 0 -32 -7 -43 -29z m39 -383 c11 -35 34
-96 53 -137 36 -80 36 -107 -1 -97 -12 3 -61 6 -109 6 -93 0 -101 5 -79 48 26
47 44 92 57 140 14 53 40 102 54 102 4 0 15 -28 25 -62z"/>
<path d="M6721 5923 c-11 -21 -41 -178 -41 -215 0 -25 27 -58 48 -58 7 0 20 8
30 19 114 123 159 155 215 149 24 -2 33 -9 38 -28 4 -14 7 -191 8 -395 0 -349
-1 -373 -20 -425 -30 -82 -32 -95 -15 -109 21 -17 110 -25 200 -16 l76 7 0 34
c0 18 -10 52 -21 74 -21 40 -22 52 -20 373 2 183 3 364 4 402 l2 70 47 3 c66
4 111 -20 160 -85 23 -30 49 -58 59 -63 19 -11 49 -3 61 14 11 16 9 91 -4 163
-20 109 4 103 -439 103 -350 0 -379 -1 -388 -17z"/>
<path d="M7813 5930 c-28 -11 -38 -32 -57 -114 -21 -89 -20 -122 4 -146 16
-16 24 -18 50 -9 17 6 37 23 45 38 7 14 34 46 59 70 40 39 52 45 99 49 36 3
57 0 62 -8 4 -6 7 -190 6 -408 -1 -382 -2 -399 -23 -461 l-22 -63 24 -20 c22
-18 36 -20 129 -16 91 4 106 8 122 26 16 20 16 24 0 64 -13 36 -17 104 -21
423 -3 209 -3 398 0 420 l5 40 47 -1 c56 -2 128 -49 173 -114 22 -32 34 -40
59 -40 61 0 68 32 37 165 -30 123 0 115 -420 114 -196 0 -366 -4 -378 -9z"/>
<path d="M8892 5933 c-36 -7 -45 -36 -26 -85 8 -24 20 -58 25 -76 6 -20 9
-179 7 -410 -3 -373 -4 -378 -27 -431 -38 -82 -33 -85 138 -89 l142 -3 -4 40
c-2 22 -12 52 -23 68 -18 26 -19 51 -19 438 0 409 0 410 23 442 28 40 28 77 0
97 -17 12 -46 16 -118 15 -52 -1 -105 -4 -118 -6z"/>
<path d="M9452 5933 c-22 -4 -23 -9 -19 -51 2 -26 12 -65 20 -87 14 -34 16
-96 16 -415 1 -345 -1 -378 -18 -416 -32 -70 -35 -101 -13 -113 22 -12 685
-17 714 -6 21 8 25 19 38 125 15 124 14 132 -27 144 -18 6 -34 -5 -91 -62 -85
-87 -107 -94 -272 -90 l-125 3 0 185 0 185 34 3 c41 4 82 -12 112 -44 32 -34
76 -33 90 3 16 42 10 215 -9 236 -20 23 -27 22 -81 -11 -74 -45 -132 -66 -142
-50 -5 7 -9 86 -9 176 0 122 3 162 13 163 6 1 58 1 115 1 119 0 128 -4 212
-92 61 -65 87 -77 116 -56 15 12 19 25 17 71 -4 80 -28 167 -54 188 -19 15
-49 17 -318 16 -163 -1 -307 -4 -319 -6z"/>
<path d="M11594 5925 c-181 -39 -343 -175 -392 -327 -59 -181 -55 -305 14
-478 53 -133 142 -216 284 -266 87 -30 165 -29 260 4 151 53 297 196 288 284
-3 29 -7 33 -33 36 -25 2 -43 -8 -95 -54 -92 -80 -136 -98 -235 -97 -127 1
-195 42 -258 156 -52 91 -62 162 -47 300 14 125 14 125 73 204 48 64 116 101
202 109 63 6 110 -21 139 -80 17 -35 18 -45 6 -108 -9 -55 -10 -75 0 -92 17
-33 62 -56 107 -56 63 1 104 49 122 142 21 118 -37 231 -148 287 -99 50 -178
60 -287 36z"/>
<path d="M13844 5909 c-28 -54 -74 -170 -110 -274 -19 -55 -45 -127 -58 -160
-13 -33 -36 -94 -50 -135 -54 -152 -110 -286 -141 -340 -18 -30 -39 -72 -46
-93 -12 -35 -12 -40 5 -52 24 -18 113 -28 150 -17 37 10 54 53 36 87 -17 32
-5 104 30 182 l29 63 160 0 c185 0 176 5 212 -110 16 -52 19 -79 14 -137 l-7
-72 39 -7 c70 -13 238 -10 256 5 21 17 22 55 1 72 -9 7 -29 39 -45 70 -16 32
-33 60 -39 64 -5 3 -10 13 -10 22 0 9 -9 35 -19 57 -11 23 -43 106 -71 186
-29 80 -63 172 -75 205 -34 90 -95 255 -111 300 -17 49 -44 97 -58 107 -6 4
-26 8 -43 8 -26 0 -36 -6 -49 -31z m25 -346 c5 -10 25 -65 44 -123 20 -58 39
-113 42 -122 7 -17 -2 -18 -104 -18 -61 0 -111 3 -111 8 1 17 41 126 63 170
13 26 27 59 30 75 8 31 22 35 36 10z"/>
<path d="M16757 5925 c-23 -22 -21 -63 4 -104 19 -32 20 -47 20 -433 -1 -378
-2 -401 -21 -438 -28 -55 -26 -88 6 -100 14 -6 163 -10 348 -10 272 0 325 2
336 15 6 8 16 45 21 82 23 174 23 160 -1 173 -34 18 -61 5 -103 -47 -66 -84
-92 -96 -217 -101 -60 -2 -120 -2 -134 2 l-26 6 0 411 0 411 25 30 c28 33 32
65 11 94 -13 17 -29 19 -134 22 -100 3 -122 1 -135 -13z"/>
<path d="M10483 5443 c-41 -4 -43 -6 -43 -36 0 -18 -3 -41 -6 -53 -3 -13 1
-28 11 -38 14 -14 44 -16 224 -16 245 0 246 0 239 79 -3 28 -8 55 -12 59 -8 8
-344 12 -413 5z"/>
<path d="M9240 4141 c-44 -14 -104 -48 -126 -73 -29 -31 -71 -116 -79 -160
-13 -69 46 -216 103 -257 37 -26 123 -36 176 -21 36 10 49 9 81 -5 37 -15 41
-15 65 3 16 13 24 28 22 43 -13 121 -13 158 -3 177 9 16 8 24 -6 37 -12 13
-17 36 -17 84 -1 58 -5 73 -30 105 -51 68 -112 89 -186 67z m62 -103 c9 -8 18
-36 21 -66 4 -29 9 -57 12 -63 4 -5 9 -41 11 -78 5 -86 -4 -96 -76 -86 -45 6
-54 12 -76 45 -37 56 -41 99 -14 171 19 49 30 64 54 75 39 17 48 17 68 2z"/>
<path d="M9591 4142 c-11 -8 -12 -21 -5 -59 14 -73 10 -371 -5 -416 -7 -21
-11 -40 -9 -42 9 -9 134 -11 151 -3 16 8 17 18 11 77 -4 43 -3 71 4 75 32 19
82 -49 82 -113 l0 -41 74 0 c58 0 79 4 97 19 l24 19 -20 24 c-40 45 -85 117
-85 134 0 10 6 25 13 33 20 23 47 97 47 127 0 47 -31 95 -86 131 -52 35 -57
36 -166 40 -64 2 -119 0 -127 -5z m218 -118 c43 -36 42 -75 -3 -120 -40 -40
-76 -45 -77 -11 -1 21 -1 119 0 145 1 21 48 13 80 -14z"/>
<path d="M10214 4120 c-66 -33 -94 -64 -124 -140 -31 -79 -27 -160 11 -226 52
-92 122 -134 221 -134 137 0 241 112 241 260 0 87 -37 168 -96 209 -106 72
-159 79 -253 31z m137 -76 c38 -19 89 -122 89 -178 0 -96 -42 -156 -109 -156
-72 0 -143 106 -143 212 1 105 81 165 163 122z"/>
<path d="M10664 4139 c-7 -9 -9 -72 -5 -185 6 -165 7 -173 36 -229 43 -84 69
-100 163 -100 68 0 82 3 119 29 77 52 86 78 88 256 1 108 5 162 14 179 12 22
11 27 -10 44 -18 14 -34 18 -63 14 -56 -8 -62 -17 -47 -80 9 -33 12 -98 10
-174 -4 -119 -5 -122 -34 -153 -39 -40 -88 -39 -119 3 -18 24 -21 46 -25 144
-2 64 2 141 9 175 7 39 8 64 2 70 -17 17 -126 22 -138 7z"/>
<path d="M11176 4137 c-19 -14 -19 -16 -2 -73 15 -50 17 -84 12 -214 -2 -85
-6 -171 -8 -190 l-3 -35 72 -3 c83 -3 89 3 74 81 -11 59 -1 73 60 86 73 16
154 67 168 106 29 81 -1 166 -77 220 -42 29 -49 30 -160 33 -90 3 -121 0 -136
-11z m221 -103 c50 -32 32 -123 -30 -149 -50 -21 -60 -5 -55 81 3 39 8 76 12
83 8 13 38 7 73 -15z"/>
<path d="M7325 3950 c-2 -8 -3 -40 0 -70 2 -30 4 -58 5 -62 0 -13 978 -10 986
3 3 6 9 40 12 75 4 58 3 64 -14 64 -951 5 -984 5 -989 -10z"/>
<path d="M12400 3893 c0 -39 4 -74 9 -77 4 -3 228 -6 497 -6 l489 -1 0 75 0
76 -498 2 -497 3 0 -72z"/>
<path d="M9662 3221 c-11 -6 -11 -23 -4 -77 14 -103 15 -308 1 -370 -8 -33 -9
-58 -3 -64 13 -13 210 -21 274 -11 37 6 60 16 72 31 22 27 24 93 3 113 -17 17
-51 12 -59 -9 -14 -37 -138 -60 -150 -28 -10 25 -7 252 4 329 9 62 9 71 -7 82
-19 15 -111 17 -131 4z"/>
<path d="M10107 3223 c-15 -4 -18 -11 -12 -31 14 -58 18 -364 5 -419 -9 -38
-10 -57 -3 -64 13 -13 210 -20 276 -9 27 4 55 14 64 22 22 23 28 98 10 123
-15 19 -16 19 -60 -13 -53 -37 -133 -54 -148 -31 -11 18 -11 200 1 313 8 79 7
91 -8 102 -16 13 -88 17 -125 7z"/>
<path d="M10719 3211 c-87 -22 -130 -56 -168 -132 -87 -175 19 -379 197 -379
40 0 138 48 174 87 19 19 27 38 26 61 -1 43 -21 42 -113 -4 -79 -38 -108 -39
-143 -1 -43 48 -53 131 -26 210 16 46 51 77 87 77 22 0 47 -34 47 -63 0 -65
39 -106 82 -86 38 17 70 72 62 105 -16 67 -72 125 -134 138 -14 2 -55 -3 -91
-13z"/>
</g>
</svg>
